<?xml version="1.0" encoding="utf-8"?>
<!-- Generator: Adobe Illustrator 16.0.0, SVG Export Plug-In . SVG Version: 6.00 Build 0)  -->
<!DOCTYPE svg PUBLIC "-//W3C//DTD SVG 1.1//EN" "http://www.w3.org/Graphics/SVG/1.1/DTD/svg11.dtd">
<svg version="1.1" id="Layer_1" xmlns="http://www.w3.org/2000/svg" xmlns:xlink="http://www.w3.org/1999/xlink" x="0px" y="0px"
	 width="25.922px" height="25.668px" viewBox="0 0 25.922 25.668" enable-background="new 0 0 25.922 25.668" xml:space="preserve">
<circle fill="#FFFFFF" cx="12.961" cy="12.961" r="12.961"/>
<path fill="#F44336" d="M13.348,20.237c1.092,0.472,1.946,0.754,2.609,0.964c1.098,0.351,2.099,0.3,2.885,0.185
	c0.879-0.133,2.709-1.108,3.091-2.179c0.38-1.069,0.38-1.984,0.267-2.177c-0.112-0.192-0.42-0.308-0.879-0.534
	c-0.456-0.229-2.706-1.339-3.125-1.49c-0.419-0.152-0.725-0.231-1.031,0.229c-0.305,0.458-1.181,1.49-1.45,1.795
	c-0.27,0.307-0.534,0.345-0.992,0.115c-0.457-0.229-1.932-0.712-3.681-2.272c-1.362-1.211-2.279-2.711-2.548-3.169
	c-0.266-0.458-0.027-0.706,0.202-0.935c0.206-0.205,0.458-0.534,0.687-0.802C9.61,9.698,9.686,9.507,9.837,9.202
	C9.99,8.896,9.914,8.629,9.798,8.399C9.683,8.17,8.769,5.915,8.388,5C8.016,4.108,7.64,4.229,7.358,4.214
	C7.091,4.2,6.785,4.197,6.48,4.197c-0.305,0-0.802,0.114-1.221,0.574c-0.42,0.458-1.602,1.564-1.602,3.818s1.64,4.431,1.869,4.736
	C5.758,13.63,8.756,18.253,13.348,20.237z"/>
</svg>
