<?xml version="1.0" encoding="utf-8"?>
<!-- Generator: Adobe Illustrator 16.0.0, SVG Export Plug-In . SVG Version: 6.00 Build 0)  -->
<!DOCTYPE svg PUBLIC "-//W3C//DTD SVG 1.1//EN" "http://www.w3.org/Graphics/SVG/1.1/DTD/svg11.dtd">
<svg version="1.1"
	 id="Layer_1" xmlns:dc="http://purl.org/dc/elements/1.1/" xmlns:rdf="http://www.w3.org/1999/02/22-rdf-syntax-ns#" xmlns:cc="http://creativecommons.org/ns#" xmlns:sodipodi="http://sodipodi.sourceforge.net/DTD/sodipodi-0.dtd" xmlns:svg="http://www.w3.org/2000/svg" xmlns:inkscape="http://www.inkscape.org/namespaces/inkscape"
	 xmlns="http://www.w3.org/2000/svg" xmlns:xlink="http://www.w3.org/1999/xlink" x="0px" y="0px" width="54.688px"
	 height="54.688px" viewBox="0 0 54.688 54.688" enable-background="new 0 0 54.688 54.688" xml:space="preserve">
<g transform="translate(0,-952.36218)">
	<path fill="#F44336" d="M51.94,956.366c-0.528,0.031-1.024,0.269-1.383,0.659c-7.267,7.602-19.054,20.573-26.66,28.595l-10.1-7.717
		c-0.889-0.693-2.171-0.535-2.864,0.354c-0.692,0.889-0.535,2.171,0.354,2.864c0.015,0.013,0.028,0.022,0.044,0.034L22.896,990
		c0.824,0.622,1.982,0.531,2.7-0.213c7.604-7.956,20.379-22.072,27.893-29.936c0.802-0.794,0.806-2.086,0.013-2.888
		C53.09,956.551,52.522,956.333,51.94,956.366z M3.041,959.788c-1.127,0-2.041,0.914-2.041,2.041v38.099
		c0,1.127,0.914,2.041,2.041,2.041h38.1c1.127,0,2.041-0.914,2.041-2.041v-20.41c0.017-1.127-0.886-2.054-2.013-2.069
		c-1.127-0.017-2.056,0.885-2.07,2.012c0,0.021,0,0.039,0,0.059v18.369H5.082V963.87h31.976c1.127,0.017,2.055-0.885,2.069-2.013
		c0.017-1.127-0.885-2.054-2.014-2.069c-0.019,0-0.037,0-0.058,0H3.041L3.041,959.788z"/>
</g>
</svg>
