<?xml version="1.0" encoding="utf-8"?>
<!DOCTYPE svg PUBLIC "-//W3C//DTD SVG 1.1//EN" "http://www.w3.org/Graphics/SVG/1.1/DTD/svg11.dtd">
<svg version="1.1" id="Layer_10" xmlns="http://www.w3.org/2000/svg" xmlns:xlink="http://www.w3.org/1999/xlink" x="0px" y="0px"
	 width="52px" height="52px" viewBox="324 324 52 52" enable-background="new 324 324 52 52" xml:space="preserve">
<g>
	<path fill="#F44336" d="M349.834,352.551l-7.288-10.088l-1.822,1.316l8.891,12.315l24.76-26.661l-1.648-1.529L349.834,352.551z"/>
	<path fill="#F44336" d="M370.359,345.977c0.283,1.409,0.428,2.843,0.428,4.28c0,5.667-2.252,11.103-6.259,15.11
		c-4.008,4.007-9.443,6.259-15.109,6.259c-5.667,0-11.104-2.251-15.11-6.259s-6.259-9.443-6.259-15.11
		c0.003-4.949,1.724-9.743,4.869-13.563c3.144-3.821,7.517-6.433,12.373-7.388c4.855-0.956,9.892-0.197,14.25,2.146l1.096-2.001
		c-4.546-2.462-9.774-3.364-14.882-2.568c-5.109,0.796-9.815,3.246-13.397,6.974s-5.841,8.529-6.432,13.665
		c-0.59,5.137,0.521,10.324,3.164,14.769c2.642,4.443,6.669,7.897,11.463,9.832c4.795,1.935,10.09,2.243,15.077,0.877
		c4.986-1.367,9.386-4.331,12.524-8.439c3.14-4.107,4.844-9.133,4.854-14.302c0.012-1.583-0.131-3.163-0.429-4.718L370.359,345.977z
		"/>
</g>
</svg>
