<?xml version="1.0" encoding="utf-8"?>
<!-- Generator: Adobe Illustrator 16.0.0, SVG Export Plug-In . SVG Version: 6.00 Build 0)  -->
<!DOCTYPE svg PUBLIC "-//W3C//DTD SVG 1.1//EN" "http://www.w3.org/Graphics/SVG/1.1/DTD/svg11.dtd">
<svg version="1.1" id="Layer_1" xmlns="http://www.w3.org/2000/svg" xmlns:xlink="http://www.w3.org/1999/xlink" x="0px" y="0px"
	 width="38.25px" height="37.875px" viewBox="0 0 38.25 37.875" enable-background="new 0 0 38.25 37.875" xml:space="preserve">
<path fill="#FFFFFF" d="M10.77,34.816c2.625,1.432,5.581,2.188,8.589,2.188h0.007c9.905,0,17.969-8.063,17.974-17.974
	c0.001-4.802-1.865-9.318-5.26-12.716s-7.906-5.269-12.715-5.271c-9.907,0-17.97,8.063-17.974,17.973
	c-0.001,3.167,0.826,6.259,2.399,8.986l-2.55,9.314L10.77,34.816z M19.373,4.079c3.991,0.001,7.741,1.558,10.563,4.381
	c2.819,2.824,4.371,6.577,4.371,10.569c-0.004,8.237-6.705,14.939-14.939,14.939H19.36c-2.681-0.001-5.31-0.721-7.604-2.082
	l-0.545-0.323l-5.654,1.482l1.509-5.513l-0.355-0.565c-1.496-2.379-2.285-5.128-2.284-7.951C4.43,10.78,11.132,4.079,19.373,4.079z"
	/>
<path fill="#FFFFFF" d="M19.739,26.451c1.071,0.463,1.907,0.74,2.561,0.945c1.075,0.344,2.056,0.295,2.829,0.18
	c0.862-0.129,2.656-1.087,3.031-2.137c0.374-1.049,0.374-1.947,0.262-2.135c-0.111-0.188-0.412-0.301-0.861-0.525
	s-2.656-1.312-3.067-1.461c-0.412-0.149-0.711-0.226-1.011,0.225c-0.299,0.45-1.159,1.462-1.422,1.762
	c-0.263,0.301-0.524,0.338-0.974,0.112c-0.448-0.226-1.896-0.698-3.612-2.229c-1.335-1.189-2.236-2.661-2.499-3.11
	c-0.262-0.449-0.028-0.692,0.197-0.917c0.202-0.201,0.449-0.524,0.673-0.787c0.225-0.262,0.299-0.45,0.449-0.75
	s0.075-0.562-0.038-0.787c-0.113-0.225-1.01-2.436-1.385-3.335c-0.364-0.875-0.734-0.757-1.01-0.771
	c-0.262-0.013-0.562-0.016-0.861-0.016s-0.786,0.112-1.197,0.562c-0.412,0.45-1.572,1.536-1.572,3.747s1.609,4.346,1.833,4.646
	C12.292,19.971,15.234,24.506,19.739,26.451z"/>
</svg>
